<svg id="eqtwWZaPsiK1" xmlns="http://www.w3.org/2000/svg" xmlns:xlink="http://www.w3.org/1999/xlink" viewBox="0 0 640 480" shape-rendering="geometricPrecision" text-rendering="geometricPrecision"><ellipse rx="101.50806" ry="101.50806" transform="matrix(1.071169 0 0 1.071169 483.686952 119.063165)" fill="#fff" stroke-width="0"/><path d="M361.18565,240l22.78756-8.70001c18.19185,27.31309,49.26665,45.30947,84.54473,45.30947c35.63283,0,66.97741-18.36013,85.08961-46.13624h6.40618L586.66666,240l7.4883,27.09821-40.54741,199.67247h-160.804638L351.20122,266.27067L361.18565,240Z" transform="matrix(1.204452 0 0 1.204452-80.806903-90.826916)" fill="#fff" stroke-width="0"/><path d="M-0.832034,-4.9922h145.586487l-.004456-34.945399l79.066956,56.578263v0l-79.0625,62.402496v-31.617264h-145.586487v-52.418096Z" transform="matrix(1.440123 0 0 1.440123 11.360133 199.637043)" fill="#fff" stroke-width="0"/></svg>