<svg xmlns="http://www.w3.org/2000/svg" width="42" height="42" viewBox="0 0 42 42" fill="none">
<path fillRule="evenodd" clipRule="evenodd" d="M21 36.75C29.6985 36.75 36.75 29.6985 36.75 21C36.75 12.3015 29.6985 5.25 21 5.25C12.3015 5.25 5.25 12.3015 5.25 21C5.25 29.6985 12.3015 36.75 21 36.75ZM21 40.25C31.6315 40.25 40.25 31.6315 40.25 21C40.25 10.3685 31.6315 1.75 21 1.75C10.3685 1.75 1.75 10.3685 1.75 21C1.75 31.6315 10.3685 40.25 21 40.25Z" fill="white"/>
<path d="M28 21L17.5 28.5777V13.4223L28 21Z" fill="white"/>
</svg>